# xmcd
#
# Track frame offsets: 
#        150
#        16894
#        53212
#        68484
#        85921
#        100208
#        154280
#        179291
#        195866
#        227282
#
# Disc length: 3406 seconds
#
# Revision: 0
# Processed by: cddbd v1.4PL0 Copyright (c) Steve Scherf et al.
# Submitted via: ExactAudioCopy v0.90b4
#
DISCID=6c0d4c0a
DTITLE=Jack Falk Project - Playing The Blues
DYEAR=1999
DGENRE=Blues
TTITLE0=The Funky Duck
TTITLE1=Cruisin The Rainforest
TTITLE2=Flying Without Wings
TTITLE3=Stratocaster On My Mind
TTITLE4=Distant Cry In The Night
TTITLE5=Homesick Blues
TTITLE6=Drivin In The Rain
TTITLE7=Piece Of The Action
TTITLE8=The Final Goodbye
TTITLE9=Data
EXTD=
EXTT0=
EXTT1=
EXTT2=
EXTT3=
EXTT4=
EXTT5=
EXTT6=
EXTT7=
EXTT8=
EXTT9=
PLAYORDER=
